<?xml version="1.0" encoding="UTF-8"?>
<svg version="1.1" xmlns="http://www.w3.org/2000/svg" width="55" height="55">
<path d="M0 0 C0.66 0 1.32 0 2 0 C2.06058594 0.62648437 2.12117188 1.25296875 2.18359375 1.8984375 C2.30927734 3.12433594 2.30927734 3.12433594 2.4375 4.375 C2.55931641 5.59316406 2.55931641 5.59316406 2.68359375 6.8359375 C2.89090114 9.04272805 2.89090114 9.04272805 4 11 C4.56460937 10.51273438 5.12921875 10.02546875 5.7109375 9.5234375 C9.58688406 6.94388263 13.49924853 7.50133719 18 8 C21.40969712 8.80609687 24.70183868 9.82108276 28 11 C26.236758 14.57938126 24.37598597 18.10355175 22.5 21.625 C21.58734375 23.34589844 21.58734375 23.34589844 20.65625 25.1015625 C18.03030303 29.6969697 18.03030303 29.6969697 14.875 30.625 C14.25625 30.74875 13.6375 30.8725 13 31 C13.39832031 31.53109375 13.79664063 32.0621875 14.20703125 32.609375 C15.8046875 34.73958333 17.40234375 36.86979167 19 39 C19.58136719 39.68578125 20.16273437 40.3715625 20.76171875 41.078125 C21.17035156 41.71234375 21.57898437 42.3465625 22 43 C21.67 43.99 21.34 44.98 21 46 C20.175 45.401875 19.35 44.80375 18.5 44.1875 C15.43270614 42.11835165 12.3459489 40.9244532 8.83203125 39.80859375 C6.68916569 38.86280874 5.48246318 37.80374002 4 36 C4 35.34 4 34.68 4 34 C3.01 34 2.02 34 1 34 C1.66 34.99 2.32 35.98 3 37 C2.74010718 41.76470174 1.96397258 44.35203375 -1 48 C-2.10460155 50.29917065 -3.0439895 52.6327359 -4 55 C-5.485 54.505 -5.485 54.505 -7 54 C-6.88638398 51.20743781 -6.7596411 48.41655882 -6.625 45.625 C-6.5940625 44.8309375 -6.563125 44.036875 -6.53125 43.21875 C-6.2265625 37.2265625 -6.2265625 37.2265625 -4 35 C-4.66 34.34 -5.32 33.68 -6 33 C-6.21269531 33.79921875 -6.42539062 34.5984375 -6.64453125 35.421875 C-8 38 -8 38 -10.57421875 38.890625 C-11.60160156 39.00921875 -12.62898437 39.1278125 -13.6875 39.25 C-15.29431641 39.45496094 -15.29431641 39.45496094 -16.93359375 39.6640625 C-17.94550781 39.77492187 -18.95742188 39.88578125 -20 40 C-21.41746479 40.2028319 -22.83434641 40.40989042 -24.25 40.625 C-25.61125 40.810625 -25.61125 40.810625 -27 41 C-27 40.34 -27 39.68 -27 39 C-22.61538462 36 -22.61538462 36 -20 36 C-19.7525 35.401875 -19.505 34.80375 -19.25 34.1875 C-17.76388147 31.58679257 -16.62050161 30.45583423 -14 29 C-10.75 28.8125 -10.75 28.8125 -8 29 C-8 28.01 -8 27.02 -8 26 C-8.556875 26.268125 -9.11375 26.53625 -9.6875 26.8125 C-12 27 -12 27 -14.5 24.875 C-16.73983654 22.29918798 -18.87648963 19.67151305 -21 17 C-21.7425 16.278125 -22.485 15.55625 -23.25 14.8125 C-25 13 -25 13 -25 11 C-24.19755859 11.433125 -24.19755859 11.433125 -23.37890625 11.875 C-19.64459399 13.64098018 -15.71019368 14.75548877 -11.77734375 16 C-9 17 -9 17 -6 19 C-5.67 19.99 -5.34 20.98 -5 22 C-4.82267288 19.14441413 -4.82267288 19.14441413 -5.6875 17.1875 C-6.16171321 13.86800751 -4.55119935 11.93619877 -3 9 C-1.91474431 6.02649673 -0.9463589 3.02029436 0 0 Z M3 18 C3 18.66 3 19.32 3 20 C2.01 20.33 1.02 20.66 0 21 C1.89179203 21.6814823 1.89179203 21.6814823 4 22 C4.66 21.34 5.32 20.68 6 20 C5.67 19.34 5.34 18.68 5 18 C4.34 18 3.68 18 3 18 Z M7 25 C6.67 26.65 6.34 28.3 6 30 C6.99 30 7.98 30 9 30 C8.67 28.35 8.34 26.7 8 25 C7.67 25 7.34 25 7 25 Z M-8 29 C-7 31 -7 31 -7 31 Z " fill="#ED741B" transform="translate(27,0)"/>
<path d="M0 0 C2.39998351 0.71590417 4.76692432 1.47742587 7.125 2.3203125 C5.361758 5.89969376 3.50098597 9.42386425 1.625 12.9453125 C0.71234375 14.66621094 0.71234375 14.66621094 -0.21875 16.421875 C-1.875 19.3203125 -1.875 19.3203125 -3.875 21.3203125 C-7.125 21.8828125 -7.125 21.8828125 -10.875 21.3203125 C-13.37050402 19.3260422 -15.37275713 17.14913275 -16.875 14.3203125 C-16.545 13.3303125 -16.215 12.3403125 -15.875 11.3203125 C-16.205 10.6603125 -16.535 10.0003125 -16.875 9.3203125 C-17.1875 5.8828125 -17.1875 5.8828125 -16.875 2.3203125 C-12.14392698 -2.32532354 -6.05891163 -1.43240574 0 0 Z " fill="#293B2C" transform="translate(47.875,8.6796875)"/>
<path d="M0 0 C1.06451787 2.39905978 1.14436754 3.57726631 0.29296875 6.0703125 C-0.07183594 6.74835937 -0.43664063 7.42640625 -0.8125 8.125 C-1.16957031 8.80820312 -1.52664062 9.49140625 -1.89453125 10.1953125 C-3 12 -3 12 -5 14 C-7.4375 14.4375 -7.4375 14.4375 -10 14 C-11.98750648 11.61499223 -13.03294076 10.08704521 -12.9375 6.9375 C-11.22299438 3.39418838 -8.90903573 1.46560367 -5.4375 -0.3125 C-3 -1 -3 -1 0 0 Z " fill="#058F43" transform="translate(48,15)"/>
<path d="M0 0 C0 0.66 0 1.32 0 2 C0.66 2.33 1.32 2.66 2 3 C1.34 4.98 0.68 6.96 0 9 C-6.32448699 10.06965872 -12.64416673 11.13329546 -19 12 C-19 11.34 -19 10.68 -19 10 C-14.61538462 7 -14.61538462 7 -12 7 C-11.7525 6.401875 -11.505 5.80375 -11.25 5.1875 C-8.4393852 0.2689241 -5.48069456 -0.37368372 0 0 Z " fill="#EB671D" transform="translate(19,29)"/>
<path d="M0 0 C0.53238281 0.28746094 1.06476563 0.57492187 1.61328125 0.87109375 C4.41109147 2.19444425 7.24058646 3.11848263 10.1875 4.0625 C15.88967972 5.88967972 15.88967972 5.88967972 17 7 C17.04080783 8.99958364 17.04254356 11.00045254 17 13 C14.8125 13.8125 14.8125 13.8125 12 14 C9.5 11.8125 9.5 11.8125 7 9 C6.113125 8.34 5.22625 7.68 4.3125 7 C1.77407018 4.80460123 0.96931321 3.17229779 0 0 Z " fill="#ED751B" transform="translate(2,11)"/>
<path d="M0 0 C2 2 2 2 2.25 5 C2 8 2 8 0 10 C-3 10.3125 -3 10.3125 -6 10 C-8.29013653 6.5647952 -8.17842973 5.014669 -8 1 C-5.23749964 -0.38125018 -3.05268901 -0.19079306 0 0 Z " fill="#F08E16" transform="translate(29,23)"/>
<path d="M0 0 C0.33 1.32 0.66 2.64 1 4 C-1.97 5.32 -4.94 6.64 -8 8 C-8.33 6.68 -8.66 5.36 -9 4 C-9 5.98 -9 7.96 -9 10 C-9.99 10 -10.98 10 -12 10 C-12.33 7.69 -12.66 5.38 -13 3 C-8.51925805 -0.36055646 -5.39449293 -0.27429625 0 0 Z " fill="#029445" transform="translate(45,9)"/>
<path d="M0 0 C2.79631108 2.72190812 5.36764674 5.52058784 7.8125 8.5625 C8.43769531 9.32691406 9.06289063 10.09132813 9.70703125 10.87890625 C10.13371094 11.57886719 10.56039062 12.27882813 11 13 C10.67 13.99 10.34 14.98 10 16 C9.13375 15.38125 8.2675 14.7625 7.375 14.125 C4.24371814 12.15345216 1.53615531 11.01033009 -2 10 C-1.01 9.34 -0.02 8.68 1 8 C1.25030977 5.41619823 1.25030977 5.41619823 1 3 C-0.32 2.34 -1.64 1.68 -3 1 C-2.01 0.67 -1.02 0.34 0 0 Z " fill="#EA5F1E" transform="translate(38,30)"/>
<path d="M0 0 C3.3 0.66 6.6 1.32 10 2 C8 6 8 6 5.375 7.25 C4.199375 7.62125 4.199375 7.62125 3 8 C3 7.34 3 6.68 3 6 C2.278125 6.144375 1.55625 6.28875 0.8125 6.4375 C-3.09375 7.21875 -3.09375 7.21875 -7 8 C-4.60490662 5.10067643 -2.68754757 4.49831724 1 4 C0.67 2.68 0.34 1.36 0 0 Z " fill="#186437" transform="translate(45,9)"/>
<path d="M0 0 C0.042721 1.66611905 0.04063832 3.33382885 0 5 C-1 6 -1 6 -3.5 6.125 C-6 6 -6 6 -7 5 C-7.04063832 3.33382885 -7.042721 1.66611905 -7 0 C-4.3333581 -1.33332095 -2.83319697 -0.67102033 0 0 Z " fill="#F19115" transform="translate(40,33)"/>
<path d="M0 0 C0.495 0.268125 0.99 0.53625 1.5 0.8125 C4.9236946 2.43875493 8.44132285 3.69515171 12 5 C11.01 6.32 10.02 7.64 9 9 C5.18063472 7.44396229 2.73955562 5.04395069 0 2 C0 1.34 0 0.68 0 0 Z " fill="#E84E20" transform="translate(2,11)"/>
<path d="M0 0 C0.99 0.33 1.98 0.66 3 1 C4.2676439 3.73030993 4.04311598 4.87352646 3.0625 7.75 C2.711875 8.4925 2.36125 9.235 2 10 C-0.81832513 8.59083743 -1.02593461 6.92219617 -2 4 C-2 3.01 -2 2.02 -2 1 C-1.34 0.67 -0.68 0.34 0 0 Z " fill="#0A8841" transform="translate(45,14)"/>
<path d="M0 0 C1.66611905 -0.042721 3.33382885 -0.04063832 5 0 C6 1 6 1 6.0625 3.5625 C6.041875 4.366875 6.02125 5.17125 6 6 C3.03 5.505 3.03 5.505 0 5 C0 3.35 0 1.7 0 0 Z " fill="#F7BD0B" transform="translate(23,25)"/>
<path d="M0 0 C1.32 0 2.64 0 4 0 C3.67 2.31 3.34 4.62 3 7 C1.68 7 0.36 7 -1 7 C-0.67 4.69 -0.34 2.38 0 0 Z " fill="#F29B13" transform="translate(13,30)"/>
<path d="M0 0 C0.66 0 1.32 0 2 0 C2 2.97 2 5.94 2 9 C0.68 9 -0.64 9 -2 9 C-1.125 1.125 -1.125 1.125 0 0 Z " fill="#E53422" transform="translate(27,0)"/>
<path d="M0 0 C2.97 0.495 2.97 0.495 6 1 C4.68 1.33 3.36 1.66 2 2 C2 2.66 2 3.32 2 4 C2.99 4.33 3.98 4.66 5 5 C1.04 5.99 -2.92 6.98 -7 8 C-3.91330796 4.91330796 -3.08072342 4.55144911 1 4 C0.67 2.68 0.34 1.36 0 0 Z " fill="#205733" transform="translate(45,9)"/>
<path d="M0 0 C1.98 0.495 1.98 0.495 4 1 C3.125 5.75 3.125 5.75 2 8 C1.01 7.67 0.02 7.34 -1 7 C-0.67 4.69 -0.34 2.38 0 0 Z " fill="#E53422" transform="translate(21,47)"/>
<path d="M0 0 C2.64 0 5.28 0 8 0 C8.33 1.32 8.66 2.64 9 4 C7.35 4.33 5.7 4.66 4 5 C4 3.68 4 2.36 4 1 C2.68 0.67 1.36 0.34 0 0 Z " fill="#0C8540" transform="translate(37,9)"/>
<path d="M0 0 C-0.33 1.32 -0.66 2.64 -1 4 C-3.31 4.33 -5.62 4.66 -8 5 C-8 4.34 -8 3.68 -8 3 C-5.09451118 0.95830515 -3.59857954 0 0 0 Z " fill="#E42823" transform="translate(8,36)"/>
<path d="M0 0 C1.65 0 3.3 0 5 0 C4.67 1.65 4.34 3.3 4 5 C2.68 5 1.36 5 0 5 C0 3.35 0 1.7 0 0 Z " fill="#F4A610" transform="translate(24,13)"/>
<path d="M0 0 C1.65 1.65 3.3 3.3 5 5 C4.67 5.99 4.34 6.98 4 8 C2.02 6.68 0.04 5.36 -2 4 C-1.34 2.68 -0.68 1.36 0 0 Z " fill="#E42823" transform="translate(44,38)"/>
<path d="M0 0 C0.433125 0.61875 0.86625 1.2375 1.3125 1.875 C2.99740483 4.2197245 2.99740483 4.2197245 6 6 C5.67 6.66 5.34 7.32 5 8 C3.35 7.67 1.7 7.34 0 7 C0 4.69 0 2.38 0 0 Z " fill="#EB671D" transform="translate(21,40)"/>
<path d="M0 0 C1.65 0 3.3 0 5 0 C5 1.32 5 2.64 5 4 C3.35 4 1.7 4 0 4 C0 2.68 0 1.36 0 0 Z " fill="#F4AA0F" transform="translate(13,19)"/>
<path d="M0 0 C2 1 4 2 6 3 C6 3.99 6 4.98 6 6 C4.125 5.8125 4.125 5.8125 2 5 C0.75 2.4375 0.75 2.4375 0 0 Z " fill="#E32124" transform="translate(2,11)"/>
<path d="M0 0 C1.99954746 -0.04254356 4.00041636 -0.04080783 6 0 C7 1 7 1 7.0625 3.5625 C7.041875 4.366875 7.02125 5.17125 7 6 C6.34 6 5.68 6 5 6 C4.87625 5.071875 4.87625 5.071875 4.75 4.125 C4.18741541 1.81562433 4.18741541 1.81562433 1.9375 0.75 C1.298125 0.5025 0.65875 0.255 0 0 Z " fill="#F39E12" transform="translate(24,24)"/>
</svg>
